<mxfile host="65bd71144e">
    <diagram id="VwffKON61xf4pd4l7ISx" name="Page-1">
        <mxGraphModel dx="802" dy="726" grid="1" gridSize="10" guides="1" tooltips="1" connect="1" arrows="1" fold="1" page="1" pageScale="1" pageWidth="827" pageHeight="1169" math="0" shadow="0">
            <root>
                <mxCell id="0"/>
                <mxCell id="1" parent="0"/>
            </root>
        </mxGraphModel>
    </diagram>
    <diagram id="3qIRQLiJEVPolcViRMlq" name="Page-2">
        <mxGraphModel dx="802" dy="726" grid="1" gridSize="10" guides="1" tooltips="1" connect="1" arrows="1" fold="1" page="1" pageScale="1" pageWidth="1654" pageHeight="1169" background="#ffffff" math="0" shadow="0">
            <root>
                <mxCell id="0"/>
                <mxCell id="1" parent="0"/>
                <mxCell id="0u5Ut2tDSdajHF-x8V56-1" value="" style="shape=ellipse;html=1;dashed=0;whitespace=wrap;aspect=fixed;perimeter=ellipsePerimeter;" parent="1" vertex="1">
                    <mxGeometry x="812" y="90" width="30" height="30" as="geometry"/>
                </mxCell>
                <mxCell id="0u5Ut2tDSdajHF-x8V56-2" value="" style="endArrow=classic;html=1;exitX=0.5;exitY=1;exitDx=0;exitDy=0;strokeColor=#1c1212;startArrow=none;" parent="1" source="0u5Ut2tDSdajHF-x8V56-7" edge="1">
                    <mxGeometry width="50" height="50" relative="1" as="geometry">
                        <mxPoint x="870" y="390" as="sourcePoint"/>
                        <mxPoint x="827" y="190" as="targetPoint"/>
                    </mxGeometry>
                </mxCell>
                <mxCell id="0u5Ut2tDSdajHF-x8V56-4" value="&lt;font color=&quot;#000000&quot;&gt;index.html&lt;/font&gt;" style="html=1;dashed=0;whitespace=wrap;fillColor=#fdfcfc;strokeColor=#000000;" parent="1" vertex="1">
                    <mxGeometry x="740" y="200" width="180" height="20" as="geometry"/>
                </mxCell>
                <mxCell id="0u5Ut2tDSdajHF-x8V56-17" style="edgeStyle=none;html=1;exitX=0.5;exitY=1;exitDx=0;exitDy=0;entryX=0.5;entryY=0;entryDx=0;entryDy=0;strokeColor=#1c1212;fontColor=#000000;" parent="1" source="0u5Ut2tDSdajHF-x8V56-6" target="0u5Ut2tDSdajHF-x8V56-9" edge="1">
                    <mxGeometry relative="1" as="geometry">
                        <Array as="points">
                            <mxPoint x="830" y="310"/>
                            <mxPoint x="560" y="310"/>
                        </Array>
                    </mxGeometry>
                </mxCell>
                <mxCell id="0u5Ut2tDSdajHF-x8V56-18" style="edgeStyle=none;html=1;exitX=0.5;exitY=1;exitDx=0;exitDy=0;entryX=0.5;entryY=0;entryDx=0;entryDy=0;strokeColor=#1c1212;fontColor=#000000;" parent="1" source="0u5Ut2tDSdajHF-x8V56-6" target="0u5Ut2tDSdajHF-x8V56-11" edge="1">
                    <mxGeometry relative="1" as="geometry">
                        <Array as="points">
                            <mxPoint x="830" y="310"/>
                        </Array>
                    </mxGeometry>
                </mxCell>
                <mxCell id="0u5Ut2tDSdajHF-x8V56-19" style="edgeStyle=none;html=1;exitX=0.5;exitY=1;exitDx=0;exitDy=0;entryX=0.5;entryY=0;entryDx=0;entryDy=0;strokeColor=#1c1212;fontColor=#000000;" parent="1" source="0u5Ut2tDSdajHF-x8V56-6" target="0u5Ut2tDSdajHF-x8V56-13" edge="1">
                    <mxGeometry relative="1" as="geometry">
                        <Array as="points">
                            <mxPoint x="830" y="310"/>
                            <mxPoint x="1100" y="310"/>
                        </Array>
                    </mxGeometry>
                </mxCell>
                <mxCell id="0u5Ut2tDSdajHF-x8V56-36" style="edgeStyle=none;html=1;exitX=0.5;exitY=1;exitDx=0;exitDy=0;entryX=0.5;entryY=0;entryDx=0;entryDy=0;strokeColor=#1c1212;fontColor=#000000;" parent="1" source="0u5Ut2tDSdajHF-x8V56-6" target="0u5Ut2tDSdajHF-x8V56-27" edge="1">
                    <mxGeometry relative="1" as="geometry">
                        <Array as="points">
                            <mxPoint x="830" y="300"/>
                            <mxPoint x="350" y="300"/>
                            <mxPoint x="350" y="330"/>
                        </Array>
                    </mxGeometry>
                </mxCell>
                <mxCell id="0u5Ut2tDSdajHF-x8V56-6" value="&lt;font color=&quot;#000000&quot;&gt;Åbner forsiden&lt;/font&gt;" style="html=1;dashed=0;whitespace=wrap;fillColor=#fdfcfc;strokeColor=#000000;" parent="1" vertex="1">
                    <mxGeometry x="740" y="220" width="180" height="60" as="geometry"/>
                </mxCell>
                <mxCell id="0u5Ut2tDSdajHF-x8V56-8" value="" style="endArrow=none;html=1;exitX=0.5;exitY=1;exitDx=0;exitDy=0;strokeColor=#1c1212;" parent="1" source="0u5Ut2tDSdajHF-x8V56-1" target="0u5Ut2tDSdajHF-x8V56-7" edge="1">
                    <mxGeometry width="50" height="50" relative="1" as="geometry">
                        <mxPoint x="826.9999999999998" y="120" as="sourcePoint"/>
                        <mxPoint x="826.9999999999998" y="190" as="targetPoint"/>
                    </mxGeometry>
                </mxCell>
                <mxCell id="0u5Ut2tDSdajHF-x8V56-7" value="Window load" style="text;html=1;align=center;verticalAlign=middle;resizable=0;points=[];autosize=1;strokeColor=none;fillColor=none;fontColor=#000000;labelBackgroundColor=none;" parent="1" vertex="1">
                    <mxGeometry x="782" y="140" width="90" height="30" as="geometry"/>
                </mxCell>
                <mxCell id="0u5Ut2tDSdajHF-x8V56-9" value="&lt;font color=&quot;#000000&quot;&gt;produkt.html&lt;/font&gt;" style="html=1;dashed=0;whitespace=wrap;fillColor=#fdfcfc;strokeColor=#000000;" parent="1" vertex="1">
                    <mxGeometry x="470" y="350" width="180" height="20" as="geometry"/>
                </mxCell>
                <mxCell id="0u5Ut2tDSdajHF-x8V56-25" style="edgeStyle=none;html=1;exitX=0.5;exitY=1;exitDx=0;exitDy=0;entryX=0.5;entryY=0;entryDx=0;entryDy=0;strokeColor=#1c1212;fontColor=#000000;" parent="1" source="0u5Ut2tDSdajHF-x8V56-10" target="0u5Ut2tDSdajHF-x8V56-21" edge="1">
                    <mxGeometry relative="1" as="geometry"/>
                </mxCell>
                <mxCell id="0u5Ut2tDSdajHF-x8V56-29" style="edgeStyle=none;html=1;exitX=0.5;exitY=1;exitDx=0;exitDy=0;strokeColor=#1c1212;fontColor=#000000;" parent="1" source="0u5Ut2tDSdajHF-x8V56-10" target="0u5Ut2tDSdajHF-x8V56-27" edge="1">
                    <mxGeometry relative="1" as="geometry">
                        <Array as="points">
                            <mxPoint x="560" y="460"/>
                            <mxPoint x="350" y="460"/>
                        </Array>
                    </mxGeometry>
                </mxCell>
                <mxCell id="0u5Ut2tDSdajHF-x8V56-10" value="&lt;font color=&quot;#000000&quot;&gt;Åbner produktsiden ved klik &lt;br&gt;på produkt i menulinjen&lt;/font&gt;" style="html=1;dashed=0;whitespace=wrap;fillColor=#fdfcfc;strokeColor=#000000;" parent="1" vertex="1">
                    <mxGeometry x="470" y="370" width="180" height="60" as="geometry"/>
                </mxCell>
                <mxCell id="0u5Ut2tDSdajHF-x8V56-11" value="&lt;font color=&quot;#000000&quot;&gt;info.html&lt;/font&gt;" style="html=1;dashed=0;whitespace=wrap;fillColor=#fdfcfc;strokeColor=#000000;" parent="1" vertex="1">
                    <mxGeometry x="740" y="350" width="180" height="20" as="geometry"/>
                </mxCell>
                <mxCell id="0u5Ut2tDSdajHF-x8V56-34" style="edgeStyle=none;html=1;exitX=0.5;exitY=1;exitDx=0;exitDy=0;strokeColor=#1c1212;fontColor=#000000;" parent="1" source="0u5Ut2tDSdajHF-x8V56-12" target="0u5Ut2tDSdajHF-x8V56-32" edge="1">
                    <mxGeometry relative="1" as="geometry"/>
                </mxCell>
                <mxCell id="0u5Ut2tDSdajHF-x8V56-12" value="&lt;span style=&quot;color: rgb(0, 0, 0);&quot;&gt;Åbner informationssiden ved&lt;br&gt;&amp;nbsp;klik&amp;nbsp;&lt;/span&gt;&lt;span style=&quot;color: rgb(0, 0, 0);&quot;&gt;på info i menulinjen&lt;br&gt;Samt klik på knap længere &lt;br&gt;nede på siden&lt;br&gt;&lt;/span&gt;" style="html=1;dashed=0;whitespace=wrap;fillColor=#fdfcfc;strokeColor=#000000;" parent="1" vertex="1">
                    <mxGeometry x="740" y="370" width="180" height="100" as="geometry"/>
                </mxCell>
                <mxCell id="0u5Ut2tDSdajHF-x8V56-13" value="&lt;font color=&quot;#000000&quot;&gt;udforsk.html&lt;/font&gt;" style="html=1;dashed=0;whitespace=wrap;fillColor=#fdfcfc;strokeColor=#000000;" parent="1" vertex="1">
                    <mxGeometry x="1010" y="350" width="180" height="20" as="geometry"/>
                </mxCell>
                <mxCell id="0u5Ut2tDSdajHF-x8V56-14" value="&lt;span style=&quot;color: rgb(0, 0, 0);&quot;&gt;Åbner læringssiden ved klik&lt;/span&gt;&lt;br style=&quot;color: rgb(0, 0, 0);&quot;&gt;&lt;span style=&quot;color: rgb(0, 0, 0);&quot;&gt;på udforsk i menulinjen&lt;/span&gt;" style="html=1;dashed=0;whitespace=wrap;fillColor=#fdfcfc;strokeColor=#000000;" parent="1" vertex="1">
                    <mxGeometry x="1010" y="370" width="180" height="60" as="geometry"/>
                </mxCell>
                <mxCell id="0u5Ut2tDSdajHF-x8V56-21" value="&lt;font color=&quot;#000000&quot;&gt;Underkategori&lt;/font&gt;" style="html=1;dashed=0;whitespace=wrap;fillColor=#fdfcfc;strokeColor=#000000;" parent="1" vertex="1">
                    <mxGeometry x="470" y="480" width="180" height="20" as="geometry"/>
                </mxCell>
                <mxCell id="0u5Ut2tDSdajHF-x8V56-26" style="edgeStyle=none;html=1;exitX=0.5;exitY=1;exitDx=0;exitDy=0;entryX=0.5;entryY=0;entryDx=0;entryDy=0;strokeColor=#1c1212;fontColor=#000000;" parent="1" source="0u5Ut2tDSdajHF-x8V56-22" target="0u5Ut2tDSdajHF-x8V56-23" edge="1">
                    <mxGeometry relative="1" as="geometry"/>
                </mxCell>
                <mxCell id="0u5Ut2tDSdajHF-x8V56-30" style="edgeStyle=none;html=1;exitX=0.5;exitY=1;exitDx=0;exitDy=0;entryX=0.5;entryY=0;entryDx=0;entryDy=0;strokeColor=#1c1212;fontColor=#000000;" parent="1" source="0u5Ut2tDSdajHF-x8V56-22" target="0u5Ut2tDSdajHF-x8V56-27" edge="1">
                    <mxGeometry relative="1" as="geometry">
                        <Array as="points">
                            <mxPoint x="560" y="590"/>
                            <mxPoint x="350" y="590"/>
                        </Array>
                    </mxGeometry>
                </mxCell>
                <mxCell id="0u5Ut2tDSdajHF-x8V56-22" value="&lt;font color=&quot;#000000&quot;&gt;Ved tryk på underkategori, &lt;br&gt;kan man sortere &lt;br&gt;hvilke produkter der vises&lt;/font&gt;" style="html=1;dashed=0;whitespace=wrap;fillColor=#fdfcfc;strokeColor=#000000;" parent="1" vertex="1">
                    <mxGeometry x="470" y="500" width="180" height="60" as="geometry"/>
                </mxCell>
                <mxCell id="0u5Ut2tDSdajHF-x8V56-23" value="&lt;font color=&quot;#000000&quot;&gt;under under kategori&lt;/font&gt;" style="html=1;dashed=0;whitespace=wrap;fillColor=#fdfcfc;strokeColor=#000000;" parent="1" vertex="1">
                    <mxGeometry x="470" y="610" width="180" height="20" as="geometry"/>
                </mxCell>
                <mxCell id="0u5Ut2tDSdajHF-x8V56-31" style="edgeStyle=none;html=1;strokeColor=#1c1212;fontColor=#000000;" parent="1" source="0u5Ut2tDSdajHF-x8V56-24" edge="1">
                    <mxGeometry relative="1" as="geometry">
                        <mxPoint x="350" y="760" as="targetPoint"/>
                        <Array as="points">
                            <mxPoint x="560" y="720"/>
                            <mxPoint x="350" y="720"/>
                        </Array>
                    </mxGeometry>
                </mxCell>
                <mxCell id="0u5Ut2tDSdajHF-x8V56-24" value="&lt;span style=&quot;color: rgb(0, 0, 0);&quot;&gt;Ved tryk på ydereligere kategori&lt;/span&gt;&lt;br style=&quot;color: rgb(0, 0, 0);&quot;&gt;&lt;span style=&quot;color: rgb(0, 0, 0);&quot;&gt;specifikation, kan man sortere&lt;/span&gt;&lt;br style=&quot;color: rgb(0, 0, 0);&quot;&gt;&lt;span style=&quot;color: rgb(0, 0, 0);&quot;&gt;hvilke produkter der vises&lt;/span&gt;" style="html=1;dashed=0;whitespace=wrap;fillColor=#fdfcfc;strokeColor=#000000;" parent="1" vertex="1">
                    <mxGeometry x="470" y="630" width="180" height="60" as="geometry"/>
                </mxCell>
                <mxCell id="0u5Ut2tDSdajHF-x8V56-27" value="&lt;font color=&quot;#000000&quot;&gt;produkt_specifik.html&lt;/font&gt;" style="html=1;dashed=0;whitespace=wrap;fillColor=#fdfcfc;strokeColor=#000000;" parent="1" vertex="1">
                    <mxGeometry x="260" y="760" width="180" height="20" as="geometry"/>
                </mxCell>
                <mxCell id="0u5Ut2tDSdajHF-x8V56-28" value="&lt;font color=&quot;#000000&quot;&gt;Åbner op for specifikt produkt&amp;nbsp;&lt;br&gt;ved klik på køb knap&lt;br&gt;&lt;/font&gt;" style="html=1;dashed=0;whitespace=wrap;fillColor=#fdfcfc;strokeColor=#000000;" parent="1" vertex="1">
                    <mxGeometry x="260" y="780" width="180" height="60" as="geometry"/>
                </mxCell>
                <mxCell id="0u5Ut2tDSdajHF-x8V56-35" value="" style="edgeStyle=none;html=1;strokeColor=#1c1212;fontColor=#000000;" parent="1" source="0u5Ut2tDSdajHF-x8V56-32" target="0u5Ut2tDSdajHF-x8V56-33" edge="1">
                    <mxGeometry relative="1" as="geometry"/>
                </mxCell>
                <mxCell id="0u5Ut2tDSdajHF-x8V56-32" value="&lt;font color=&quot;#000000&quot;&gt;Underkategori&lt;/font&gt;" style="html=1;dashed=0;whitespace=wrap;fillColor=#fdfcfc;strokeColor=#000000;" parent="1" vertex="1">
                    <mxGeometry x="740" y="505" width="180" height="20" as="geometry"/>
                </mxCell>
                <mxCell id="0u5Ut2tDSdajHF-x8V56-33" value="&lt;font color=&quot;#000000&quot;&gt;Ved tryk på underkategori, &lt;br&gt;hopper man automatisk ned til&lt;br&gt;det emne man vælger&lt;br&gt;&lt;/font&gt;" style="html=1;dashed=0;whitespace=wrap;fillColor=#fdfcfc;strokeColor=#000000;" parent="1" vertex="1">
                    <mxGeometry x="740" y="525" width="180" height="60" as="geometry"/>
                </mxCell>
            </root>
        </mxGraphModel>
    </diagram>
</mxfile>